<svg width="50" height="50" viewBox="0 0 50 50" fill="none" xmlns="http://www.w3.org/2000/svg">
<path d="M34.9583 15.0417C35.2542 15.3333 35.4167 15.7313 35.4167 16.1458V21.3542C35.4167 21.7686 35.252 22.166 34.959 22.459C34.666 22.7521 34.2686 22.9167 33.8542 22.9167C33.4398 22.9167 33.0423 22.7521 32.7493 22.459C32.4563 22.166 32.2917 21.7686 32.2917 21.3542V19.9167L28.7083 23.5C28.5641 23.6492 28.3916 23.7681 28.201 23.8499C28.0103 23.9317 27.8053 23.9747 27.5978 23.9764C27.3903 23.9781 27.1846 23.9385 26.9926 23.8599C26.8006 23.7812 26.6262 23.6651 26.4796 23.5183C26.3329 23.3715 26.217 23.197 26.1385 23.005C26.0601 22.8129 26.0206 22.6071 26.0225 22.3997C26.0244 22.1922 26.0676 21.9872 26.1496 21.7966C26.2316 21.606 26.3507 21.4337 26.5 21.2896L30.0833 17.7083H28.6458C28.2314 17.7083 27.834 17.5437 27.541 17.2507C27.2479 16.9577 27.0833 16.5602 27.0833 16.1458C27.0833 15.7314 27.2479 15.334 27.541 15.041C27.834 14.748 28.2314 14.5833 28.6458 14.5833H33.8542C34.2684 14.5837 34.6656 14.7486 34.9583 15.0417ZM14.5833 33.8542C14.5833 34.2686 14.7479 34.666 15.041 34.959C15.334 35.2521 15.7314 35.4167 16.1458 35.4167H21.3562C21.7706 35.4167 22.1681 35.2521 22.4611 34.959C22.7541 34.666 22.9187 34.2686 22.9187 33.8542C22.9187 33.4398 22.7541 33.0423 22.4611 32.7493C22.1681 32.4563 21.7706 32.2917 21.3562 32.2917H19.9187L23.5021 28.7083C23.7866 28.4135 23.9439 28.0188 23.9401 27.6091C23.9364 27.1994 23.7719 26.8076 23.482 26.518C23.1922 26.2284 22.8002 26.0643 22.3905 26.0609C21.9808 26.0576 21.5862 26.2152 21.2917 26.5L17.7083 30.0792V28.6417C17.7083 28.2273 17.5437 27.8298 17.2507 27.5368C16.9577 27.2438 16.5602 27.0792 16.1458 27.0792C15.7314 27.0792 15.334 27.2438 15.041 27.5368C14.7479 27.8298 14.5833 28.2273 14.5833 28.6417V33.85V33.8542ZM4.16666 14.0625C4.16666 12.543 4.77026 11.0858 5.84469 10.0114C6.91912 8.93695 8.37635 8.33334 9.89582 8.33334H40.1042C41.6236 8.33334 43.0809 8.93695 44.1553 10.0114C45.2297 11.0858 45.8333 12.543 45.8333 14.0625V35.9375C45.8333 36.6899 45.6851 37.4349 45.3972 38.13C45.1093 38.8251 44.6873 39.4566 44.1553 39.9886C43.6233 40.5206 42.9917 40.9426 42.2966 41.2306C41.6015 41.5185 40.8565 41.6667 40.1042 41.6667H9.89582C9.14346 41.6667 8.39846 41.5185 7.70337 41.2306C7.00827 40.9426 6.37669 40.5206 5.84469 39.9886C5.31269 39.4566 4.89068 38.8251 4.60276 38.13C4.31485 37.4349 4.16666 36.6899 4.16666 35.9375V14.0625ZM9.89582 11.4583C8.45832 11.4583 7.29166 12.625 7.29166 14.0625V35.9375C7.29166 37.375 8.45832 38.5417 9.89582 38.5417H40.1042C41.5417 38.5417 42.7083 37.375 42.7083 35.9375V14.0625C42.7083 12.625 41.5417 11.4583 40.1042 11.4583H9.89582Z" fill="#828282"/>
</svg>
