<svg width="28" height="28" viewBox="0 0 28 28" fill="none" xmlns="http://www.w3.org/2000/svg">
<path d="M12.1925 6.80004L7.9638 1.91879C7.4763 1.35629 6.58255 1.35879 6.0163 1.92629L2.5388 5.41004C1.5038 6.44629 1.20755 7.98504 1.8063 9.21879C5.38332 16.625 11.3564 22.6064 18.7575 26.1938C19.99 26.7925 21.5275 26.4963 22.5625 25.46L26.0725 21.9438C26.6413 21.375 26.6425 20.4763 26.075 19.9888L21.175 15.7825C20.6625 15.3425 19.8663 15.4 19.3525 15.915L17.6475 17.6225C17.5603 17.714 17.4454 17.7743 17.3205 17.7942C17.1956 17.8141 17.0677 17.7924 16.9563 17.7325C14.1694 16.1277 11.8575 13.8128 10.2563 11.0238C10.1963 10.9122 10.1746 10.7841 10.1945 10.659C10.2144 10.5339 10.2747 10.4188 10.3663 10.3313L12.0663 8.63004C12.5813 8.11254 12.6375 7.31254 12.1925 6.79879V6.80004Z" stroke="white" stroke-width="2" stroke-linecap="round" stroke-linejoin="round"/>
</svg>
