<svg width="376" height="45" viewBox="0 0 376 45" fill="none" xmlns="http://www.w3.org/2000/svg">
<path d="M75.22 12.15L67.39 33H63.43L55.57 12.15H59.23L65.41 29.49L71.62 12.15H75.22ZM79.8201 14.28C79.2001 14.28 78.6801 14.07 78.2601 13.65C77.8401 13.23 77.6301 12.71 77.6301 12.09C77.6301 11.47 77.8401 10.95 78.2601 10.53C78.6801 10.11 79.2001 9.9 79.8201 9.9C80.4201 9.9 80.9301 10.11 81.3501 10.53C81.7701 10.95 81.9801 11.47 81.9801 12.09C81.9801 12.71 81.7701 13.23 81.3501 13.65C80.9301 14.07 80.4201 14.28 79.8201 14.28ZM81.5001 16.47V33H78.0801V16.47H81.5001ZM84.8502 24.72C84.8502 23.02 85.1902 21.53 85.8702 20.25C86.5702 18.95 87.5302 17.95 88.7502 17.25C89.9702 16.55 91.3702 16.2 92.9502 16.2C94.9502 16.2 96.6002 16.68 97.9002 17.64C99.2202 18.58 100.11 19.93 100.57 21.69H96.8802C96.5802 20.87 96.1002 20.23 95.4402 19.77C94.7802 19.31 93.9502 19.08 92.9502 19.08C91.5502 19.08 90.4302 19.58 89.5902 20.58C88.7702 21.56 88.3602 22.94 88.3602 24.72C88.3602 26.5 88.7702 27.89 89.5902 28.89C90.4302 29.89 91.5502 30.39 92.9502 30.39C94.9302 30.39 96.2402 29.52 96.8802 27.78H100.57C100.09 29.46 99.1902 30.8 97.8702 31.8C96.5502 32.78 94.9102 33.27 92.9502 33.27C91.3702 33.27 89.9702 32.92 88.7502 32.22C87.5302 31.5 86.5702 30.5 85.8702 29.22C85.1902 27.92 84.8502 26.42 84.8502 24.72ZM107.969 19.26V28.41C107.969 29.03 108.109 29.48 108.389 29.76C108.689 30.02 109.189 30.15 109.889 30.15H111.989V33H109.289C107.749 33 106.569 32.64 105.749 31.92C104.929 31.2 104.519 30.03 104.519 28.41V19.26H102.569V16.47H104.519V12.36H107.969V16.47H111.989V19.26H107.969ZM122.311 33.27C120.751 33.27 119.341 32.92 118.081 32.22C116.821 31.5 115.831 30.5 115.111 29.22C114.391 27.92 114.031 26.42 114.031 24.72C114.031 23.04 114.401 21.55 115.141 20.25C115.881 18.95 116.891 17.95 118.171 17.25C119.451 16.55 120.881 16.2 122.461 16.2C124.041 16.2 125.471 16.55 126.751 17.25C128.031 17.95 129.041 18.95 129.781 20.25C130.521 21.55 130.891 23.04 130.891 24.72C130.891 26.4 130.511 27.89 129.751 29.19C128.991 30.49 127.951 31.5 126.631 32.22C125.331 32.92 123.891 33.27 122.311 33.27ZM122.311 30.3C123.191 30.3 124.011 30.09 124.771 29.67C125.551 29.25 126.181 28.62 126.661 27.78C127.141 26.94 127.381 25.92 127.381 24.72C127.381 23.52 127.151 22.51 126.691 21.69C126.231 20.85 125.621 20.22 124.861 19.8C124.101 19.38 123.281 19.17 122.401 19.17C121.521 19.17 120.701 19.38 119.941 19.8C119.201 20.22 118.611 20.85 118.171 21.69C117.731 22.51 117.511 23.52 117.511 24.72C117.511 26.5 117.961 27.88 118.861 28.86C119.781 29.82 120.931 30.3 122.311 30.3ZM137.691 18.87C138.191 18.03 138.851 17.38 139.671 16.92C140.511 16.44 141.501 16.2 142.641 16.2V19.74H141.771C140.431 19.74 139.411 20.08 138.711 20.76C138.031 21.44 137.691 22.62 137.691 24.3V33H134.271V16.47H137.691V18.87ZM147.525 14.28C146.905 14.28 146.385 14.07 145.965 13.65C145.545 13.23 145.335 12.71 145.335 12.09C145.335 11.47 145.545 10.95 145.965 10.53C146.385 10.11 146.905 9.9 147.525 9.9C148.125 9.9 148.635 10.11 149.055 10.53C149.475 10.95 149.685 11.47 149.685 12.09C149.685 12.71 149.475 13.23 149.055 13.65C148.635 14.07 148.125 14.28 147.525 14.28ZM149.205 16.47V33H145.785V16.47H149.205ZM152.555 24.66C152.555 23 152.895 21.53 153.575 20.25C154.275 18.97 155.215 17.98 156.395 17.28C157.595 16.56 158.915 16.2 160.355 16.2C161.655 16.2 162.785 16.46 163.745 16.98C164.725 17.48 165.505 18.11 166.085 18.87V16.47H169.535V33H166.085V30.54C165.505 31.32 164.715 31.97 163.715 32.49C162.715 33.01 161.575 33.27 160.295 33.27C158.875 33.27 157.575 32.91 156.395 32.19C155.215 31.45 154.275 30.43 153.575 29.13C152.895 27.81 152.555 26.32 152.555 24.66ZM166.085 24.72C166.085 23.58 165.845 22.59 165.365 21.75C164.905 20.91 164.295 20.27 163.535 19.83C162.775 19.39 161.955 19.17 161.075 19.17C160.195 19.17 159.375 19.39 158.615 19.83C157.855 20.25 157.235 20.88 156.755 21.72C156.295 22.54 156.065 23.52 156.065 24.66C156.065 25.8 156.295 26.8 156.755 27.66C157.235 28.52 157.855 29.18 158.615 29.64C159.395 30.08 160.215 30.3 161.075 30.3C161.955 30.3 162.775 30.08 163.535 29.64C164.295 29.2 164.905 28.56 165.365 27.72C165.845 26.86 166.085 25.86 166.085 24.72ZM185.24 12.15V33H181.82V12.15H185.24ZM195.73 33.27C194.43 33.27 193.26 33.04 192.22 32.58C191.2 32.1 190.39 31.46 189.79 30.66C189.19 29.84 188.87 28.93 188.83 27.93H192.37C192.43 28.63 192.76 29.22 193.36 29.7C193.98 30.16 194.75 30.39 195.67 30.39C196.63 30.39 197.37 30.21 197.89 29.85C198.43 29.47 198.7 28.99 198.7 28.41C198.7 27.79 198.4 27.33 197.8 27.03C197.22 26.73 196.29 26.4 195.01 26.04C193.77 25.7 192.76 25.37 191.98 25.05C191.2 24.73 190.52 24.24 189.94 23.58C189.38 22.92 189.1 22.05 189.1 20.97C189.1 20.09 189.36 19.29 189.88 18.57C190.4 17.83 191.14 17.25 192.1 16.83C193.08 16.41 194.2 16.2 195.46 16.2C197.34 16.2 198.85 16.68 199.99 17.64C201.15 18.58 201.77 19.87 201.85 21.51H198.43C198.37 20.77 198.07 20.18 197.53 19.74C196.99 19.3 196.26 19.08 195.34 19.08C194.44 19.08 193.75 19.25 193.27 19.59C192.79 19.93 192.55 20.38 192.55 20.94C192.55 21.38 192.71 21.75 193.03 22.05C193.35 22.35 193.74 22.59 194.2 22.77C194.66 22.93 195.34 23.14 196.24 23.4C197.44 23.72 198.42 24.05 199.18 24.39C199.96 24.71 200.63 25.19 201.19 25.83C201.75 26.47 202.04 27.32 202.06 28.38C202.06 29.32 201.8 30.16 201.28 30.9C200.76 31.64 200.02 32.22 199.06 32.64C198.12 33.06 197.01 33.27 195.73 33.27ZM209.176 10.8V33H205.756V10.8H209.176ZM212.526 24.66C212.526 23 212.866 21.53 213.546 20.25C214.246 18.97 215.186 17.98 216.366 17.28C217.566 16.56 218.886 16.2 220.326 16.2C221.626 16.2 222.756 16.46 223.716 16.98C224.696 17.48 225.476 18.11 226.056 18.87V16.47H229.506V33H226.056V30.54C225.476 31.32 224.686 31.97 223.686 32.49C222.686 33.01 221.546 33.27 220.266 33.27C218.846 33.27 217.546 32.91 216.366 32.19C215.186 31.45 214.246 30.43 213.546 29.13C212.866 27.81 212.526 26.32 212.526 24.66ZM226.056 24.72C226.056 23.58 225.816 22.59 225.336 21.75C224.876 20.91 224.266 20.27 223.506 19.83C222.746 19.39 221.926 19.17 221.046 19.17C220.166 19.17 219.346 19.39 218.586 19.83C217.826 20.25 217.206 20.88 216.726 21.72C216.266 22.54 216.036 23.52 216.036 24.66C216.036 25.8 216.266 26.8 216.726 27.66C217.206 28.52 217.826 29.18 218.586 29.64C219.366 30.08 220.186 30.3 221.046 30.3C221.926 30.3 222.746 30.08 223.506 29.64C224.266 29.2 224.876 28.56 225.336 27.72C225.816 26.86 226.056 25.86 226.056 24.72ZM242.338 16.2C243.638 16.2 244.798 16.47 245.818 17.01C246.858 17.55 247.668 18.35 248.248 19.41C248.828 20.47 249.118 21.75 249.118 23.25V33H245.728V23.76C245.728 22.28 245.358 21.15 244.618 20.37C243.878 19.57 242.868 19.17 241.588 19.17C240.308 19.17 239.288 19.57 238.528 20.37C237.788 21.15 237.418 22.28 237.418 23.76V33H233.998V16.47H237.418V18.36C237.978 17.68 238.688 17.15 239.548 16.77C240.428 16.39 241.358 16.2 242.338 16.2ZM252.34 24.66C252.34 23 252.68 21.53 253.36 20.25C254.06 18.97 255 17.98 256.18 17.28C257.38 16.56 258.71 16.2 260.17 16.2C261.25 16.2 262.31 16.44 263.35 16.92C264.41 17.38 265.25 18 265.87 18.78V10.8H269.32V33H265.87V30.51C265.31 31.31 264.53 31.97 263.53 32.49C262.55 33.01 261.42 33.27 260.14 33.27C258.7 33.27 257.38 32.91 256.18 32.19C255 31.45 254.06 30.43 253.36 29.13C252.68 27.81 252.34 26.32 252.34 24.66ZM265.87 24.72C265.87 23.58 265.63 22.59 265.15 21.75C264.69 20.91 264.08 20.27 263.32 19.83C262.56 19.39 261.74 19.17 260.86 19.17C259.98 19.17 259.16 19.39 258.4 19.83C257.64 20.25 257.02 20.88 256.54 21.72C256.08 22.54 255.85 23.52 255.85 24.66C255.85 25.8 256.08 26.8 256.54 27.66C257.02 28.52 257.64 29.18 258.4 29.64C259.18 30.08 260 30.3 260.86 30.3C261.74 30.3 262.56 30.08 263.32 29.64C264.08 29.2 264.69 28.56 265.15 27.72C265.63 26.86 265.87 25.86 265.87 24.72ZM277.563 28.89L273.933 37.17H271.713L273.843 28.89H277.563ZM291.764 30.24H298.814V33H288.344V12.15H291.764V30.24ZM300.534 24.66C300.534 23 300.874 21.53 301.554 20.25C302.254 18.97 303.194 17.98 304.374 17.28C305.574 16.56 306.894 16.2 308.334 16.2C309.634 16.2 310.764 16.46 311.724 16.98C312.704 17.48 313.484 18.11 314.064 18.87V16.47H317.514V33H314.064V30.54C313.484 31.32 312.694 31.97 311.694 32.49C310.694 33.01 309.554 33.27 308.274 33.27C306.854 33.27 305.554 32.91 304.374 32.19C303.194 31.45 302.254 30.43 301.554 29.13C300.874 27.81 300.534 26.32 300.534 24.66ZM314.064 24.72C314.064 23.58 313.824 22.59 313.344 21.75C312.884 20.91 312.274 20.27 311.514 19.83C310.754 19.39 309.934 19.17 309.054 19.17C308.174 19.17 307.354 19.39 306.594 19.83C305.834 20.25 305.214 20.88 304.734 21.72C304.274 22.54 304.044 23.52 304.044 24.66C304.044 25.8 304.274 26.8 304.734 27.66C305.214 28.52 305.834 29.18 306.594 29.64C307.374 30.08 308.194 30.3 309.054 30.3C309.934 30.3 310.754 30.08 311.514 29.64C312.274 29.2 312.884 28.56 313.344 27.72C313.824 26.86 314.064 25.86 314.064 24.72ZM328.666 16.2C329.946 16.2 331.076 16.46 332.056 16.98C333.056 17.48 333.836 18.11 334.396 18.87V16.47H337.846V33.27C337.846 34.79 337.526 36.14 336.886 37.32C336.246 38.52 335.316 39.46 334.096 40.14C332.896 40.82 331.456 41.16 329.776 41.16C327.536 41.16 325.676 40.63 324.196 39.57C322.716 38.53 321.876 37.11 321.676 35.31H325.066C325.326 36.17 325.876 36.86 326.716 37.38C327.576 37.92 328.596 38.19 329.776 38.19C331.156 38.19 332.266 37.77 333.106 36.93C333.966 36.09 334.396 34.87 334.396 33.27V30.51C333.816 31.29 333.026 31.95 332.026 32.49C331.046 33.01 329.926 33.27 328.666 33.27C327.226 33.27 325.906 32.91 324.706 32.19C323.526 31.45 322.586 30.43 321.886 29.13C321.206 27.81 320.866 26.32 320.866 24.66C320.866 23 321.206 21.53 321.886 20.25C322.586 18.97 323.526 17.98 324.706 17.28C325.906 16.56 327.226 16.2 328.666 16.2ZM334.396 24.72C334.396 23.58 334.156 22.59 333.676 21.75C333.216 20.91 332.606 20.27 331.846 19.83C331.086 19.39 330.266 19.17 329.386 19.17C328.506 19.17 327.686 19.39 326.926 19.83C326.166 20.25 325.546 20.88 325.066 21.72C324.606 22.54 324.376 23.52 324.376 24.66C324.376 25.8 324.606 26.8 325.066 27.66C325.546 28.52 326.166 29.18 326.926 29.64C327.706 30.08 328.526 30.3 329.386 30.3C330.266 30.3 331.086 30.08 331.846 29.64C332.606 29.2 333.216 28.56 333.676 27.72C334.156 26.86 334.396 25.86 334.396 24.72ZM349.508 33.27C347.948 33.27 346.538 32.92 345.278 32.22C344.018 31.5 343.028 30.5 342.308 29.22C341.588 27.92 341.228 26.42 341.228 24.72C341.228 23.04 341.598 21.55 342.338 20.25C343.078 18.95 344.088 17.95 345.368 17.25C346.648 16.55 348.078 16.2 349.658 16.2C351.238 16.2 352.668 16.55 353.948 17.25C355.228 17.95 356.238 18.95 356.978 20.25C357.718 21.55 358.088 23.04 358.088 24.72C358.088 26.4 357.708 27.89 356.948 29.19C356.188 30.49 355.148 31.5 353.828 32.22C352.528 32.92 351.088 33.27 349.508 33.27ZM349.508 30.3C350.388 30.3 351.208 30.09 351.968 29.67C352.748 29.25 353.378 28.62 353.858 27.78C354.338 26.94 354.578 25.92 354.578 24.72C354.578 23.52 354.348 22.51 353.888 21.69C353.428 20.85 352.818 20.22 352.058 19.8C351.298 19.38 350.478 19.17 349.598 19.17C348.718 19.17 347.898 19.38 347.138 19.8C346.398 20.22 345.808 20.85 345.368 21.69C344.928 22.51 344.708 23.52 344.708 24.72C344.708 26.5 345.158 27.88 346.058 28.86C346.978 29.82 348.128 30.3 349.508 30.3ZM367.469 33.27C366.169 33.27 364.999 33.04 363.959 32.58C362.939 32.1 362.129 31.46 361.529 30.66C360.929 29.84 360.609 28.93 360.569 27.93H364.109C364.169 28.63 364.499 29.22 365.099 29.7C365.719 30.16 366.489 30.39 367.409 30.39C368.369 30.39 369.109 30.21 369.629 29.85C370.169 29.47 370.439 28.99 370.439 28.41C370.439 27.79 370.139 27.33 369.539 27.03C368.959 26.73 368.029 26.4 366.749 26.04C365.509 25.7 364.499 25.37 363.719 25.05C362.939 24.73 362.259 24.24 361.679 23.58C361.119 22.92 360.839 22.05 360.839 20.97C360.839 20.09 361.099 19.29 361.619 18.57C362.139 17.83 362.879 17.25 363.839 16.83C364.819 16.41 365.939 16.2 367.199 16.2C369.079 16.2 370.589 16.68 371.729 17.64C372.889 18.58 373.509 19.87 373.589 21.51H370.169C370.109 20.77 369.809 20.18 369.269 19.74C368.729 19.3 367.999 19.08 367.079 19.08C366.179 19.08 365.489 19.25 365.009 19.59C364.529 19.93 364.289 20.38 364.289 20.94C364.289 21.38 364.449 21.75 364.769 22.05C365.089 22.35 365.479 22.59 365.939 22.77C366.399 22.93 367.079 23.14 367.979 23.4C369.179 23.72 370.159 24.05 370.919 24.39C371.699 24.71 372.369 25.19 372.929 25.83C373.489 26.47 373.779 27.32 373.799 28.38C373.799 29.32 373.539 30.16 373.019 30.9C372.499 31.64 371.759 32.22 370.799 32.64C369.859 33.06 368.749 33.27 367.469 33.27Z" fill="black"/>
<path d="M20 24.6667C22.7614 24.6667 25 22.4281 25 19.6667C25 16.9053 22.7614 14.6667 20 14.6667C17.2386 14.6667 15 16.9053 15 19.6667C15 22.4281 17.2386 24.6667 20 24.6667Z" stroke="black" stroke-width="2" stroke-linecap="round" stroke-linejoin="round"/>
<path d="M20 6.33334C16.4638 6.33334 13.0724 7.7381 10.5719 10.2386C8.07143 12.7391 6.66667 16.1305 6.66667 19.6667C6.66667 22.82 7.33667 24.8833 9.16667 27.1667L20 39.6667L30.8333 27.1667C32.6633 24.8833 33.3333 22.82 33.3333 19.6667C33.3333 16.1305 31.9286 12.7391 29.4281 10.2386C26.9276 7.7381 23.5362 6.33334 20 6.33334V6.33334Z" stroke="black" stroke-width="2" stroke-linecap="round" stroke-linejoin="round"/>
</svg>
